<svg width="286" height="48" viewBox="0 0 286 48" fill="none" xmlns="http://www.w3.org/2000/svg">
<path d="M275.741 46.4325V37.6111H285.152V46.4325H275.741ZM284.886 31.295H276.045L275.757 0H285.166L284.883 31.295H284.886ZM250.557 7.01171C240.71 7.01171 232.697 14.2812 232.697 24.153V46.4353H242.791V24.5133C242.791 20.2203 246.275 16.6951 250.557 16.6951C254.838 16.6951 258.322 20.2203 258.322 24.5105V46.4325H268.416V24.1502C268.416 14.2839 260.406 7.01171 250.557 7.01171V7.01171ZM206.549 38.1459C203.666 38.1459 200.901 37.0006 198.862 34.9619C196.823 32.9232 195.678 30.1582 195.678 27.275C195.678 24.3919 196.823 21.6268 198.862 19.5881C200.901 17.5494 203.666 16.4041 206.549 16.4041C209.432 16.4041 212.197 17.5494 214.236 19.5881C216.275 21.6268 217.42 24.3919 217.42 27.275C217.42 30.1582 216.275 32.9232 214.236 34.9619C212.197 37.0006 209.432 38.1459 206.549 38.1459ZM206.549 7.01171C195.4 7.01171 186.329 16.102 186.329 27.2736C186.329 38.448 195.4 47.5383 206.549 47.5383C217.696 47.5383 226.767 38.448 226.767 27.2736C226.767 16.102 217.696 7.01171 206.549 7.01171" fill="#8EB50D"/>
<path d="M161.574 15.4895C164.368 15.4895 166.851 16.4262 168.752 18.1972C170.325 19.6909 171.428 21.6102 171.928 23.7206H151.165C151.696 21.3651 153.019 19.263 154.913 17.7651C156.807 16.2671 159.157 15.4639 161.572 15.4895H161.574ZM180.761 24.5909C180.309 19.4637 178.195 15.0516 174.578 11.8257C171.097 8.72167 166.48 7.01169 161.577 7.01169C159.005 6.99933 156.458 7.50901 154.089 8.50987C151.72 9.51073 149.579 10.982 147.795 12.8345C144.103 16.648 142.072 21.8693 142.072 27.5314C142.072 33.4483 144.197 38.5284 148.219 42.2199C151.96 45.6482 157.021 47.5411 162.469 47.5411C169.243 47.5411 174.775 45.2103 178.91 40.6153L172.336 34.7814C169.916 37.4337 166.635 38.7778 162.578 38.7778C160.073 38.788 157.619 38.0739 155.51 36.7214C153.396 35.3329 151.924 33.3957 151.248 31.1231L151.17 30.8626L180.658 30.8404C180.658 30.8404 181.071 28.1106 180.761 24.5909V24.5909ZM120.64 7.26667C116.55 7.26667 112.83 8.8741 110.078 11.4876C107.23 8.77341 103.445 7.26164 99.5109 7.26667C97.4915 7.26885 95.4923 7.66881 93.6275 8.44371C91.7626 9.21861 90.0687 10.3533 88.6424 11.7829C87.2162 13.2125 86.0855 14.9091 85.3149 16.7757C84.5444 18.6424 84.1491 20.6425 84.1517 22.662V46.4325H93.7408V22.662C93.7408 19.4665 96.3266 16.878 99.5109 16.878C102.698 16.878 105.281 19.4665 105.281 22.662V46.4325H114.87V22.662C114.87 19.4665 117.456 16.878 120.643 16.878C123.83 16.878 126.413 19.4665 126.413 22.662V46.4325H136.002V22.662C136.005 20.6425 135.61 18.6424 134.839 16.7757C134.069 14.9091 132.938 13.2125 131.512 11.7829C130.085 10.3533 128.391 9.21861 126.527 8.44371C124.662 7.66881 122.662 7.26885 120.643 7.26667H120.64ZM57.7843 38.1459C54.9548 38.1473 52.2378 37.0376 50.2183 35.0558C49.1793 34.0437 48.3538 32.8335 47.7906 31.4968C47.2275 30.1601 46.9381 28.7241 46.9397 27.2736C46.9397 24.2805 48.1536 21.5645 50.1158 19.5968C51.1201 18.5849 52.3148 17.7819 53.6309 17.2339C54.947 16.6859 56.3586 16.4039 57.7843 16.4041C60.6674 16.4041 63.4325 17.5494 65.4712 19.5881C67.5099 21.6268 68.6552 24.3918 68.6552 27.275C68.6552 30.1581 67.5099 32.9232 65.4712 34.9619C63.4325 37.0006 60.6674 38.1459 57.7843 38.1459V38.1459ZM57.7843 7.01169C54.6939 7.01214 51.6449 7.7223 48.8724 9.08743C46.0998 10.4525 43.6779 12.4362 41.7932 14.8853C39.0463 18.4303 37.5583 22.789 37.564 27.2736C37.5587 31.7499 39.0415 36.101 41.7793 39.6425C43.6629 42.0981 46.086 44.0876 48.8612 45.4572C51.6364 46.8268 54.6895 47.5398 57.7843 47.5411C68.9338 47.5411 78.0047 38.4508 78.0047 27.2736C78.0047 16.102 68.9338 7.01169 57.7843 7.01169V7.01169ZM20.2204 16.4068C24.1114 16.4068 27.5314 18.4716 29.4437 21.5617L34.7371 13.1864C32.8576 11.2331 30.603 9.67939 28.1085 8.61836C25.6141 7.55734 22.9311 7.01086 20.2204 7.01169C9.07089 7.01169 0 16.102 0 27.2708C0 38.4452 9.07089 47.5355 20.2204 47.5355C25.8186 47.5355 30.8931 45.2435 34.5597 41.5465L29.294 33.2156C28.3107 34.7267 26.966 35.9688 25.3816 36.8292C23.7973 37.6896 22.0233 38.1412 20.2204 38.1432C17.3372 38.1432 14.5721 36.9978 12.5334 34.9591C10.4947 32.9204 9.34942 30.1554 9.34942 27.2722C9.34942 24.3891 10.4947 21.624 12.5334 19.5853C14.5721 17.5466 17.3372 16.4013 20.2204 16.4013" fill="#F9F9F9"/>
</svg>
